<svg id="Layer_1" data-name="Layer 1" xmlns="http://www.w3.org/2000/svg" viewBox="0 0 600.44 380.2"><defs><style>.cls-1{fill:#fff;}</style></defs><g id="ST_logo_monogram_white"><path class="cls-1" d="M194.19,68.64c-24.39,0-47.4,11.5-47.4,32.21,0,22.09,19.33,31.29,62.12,42.33,50.62,13.35,78.22,38.65,78.22,85.13,0,69-58.89,109.51-142.64,109.51C59.37,337.82,8.76,294.57,6,226l69.94-16.57c4.6,44.63,30.82,64,74.54,64,34.51,0,58.43-15.19,58.43-36.81,0-22.55-14.72-30.83-60.27-42.79-50.62-13.35-79.15-41.87-79.15-87C69.49,41.5,126.55,6.52,199.71,6.52,272,6.52,312,40.11,316.12,96.71l-69,16.11C243.88,84.75,225.48,68.64,194.19,68.64Z" transform="translate(-6 -6.52)"/><path class="cls-1" d="M584.76,78.18H439l-83.47,256H281.74L387,11.32H606.44Z" transform="translate(-6 -6.52)"/><path class="cls-1" d="M475.53,280.69,462.1,321.88h29.16l-3.49,10.76h-41l16.92-51.95Z" transform="translate(-6 -6.52)"/><path class="cls-1" d="M535,321.88H511.79l-7.27,10.76H490l37.18-51.95h17.07l3.64,51.95H535.54Zm-.6-10.76-1-21.23-14.32,21.23Z" transform="translate(-6 -6.52)"/><path class="cls-1" d="M500.36,247.58a59.64,59.64,0,1,1-59.64,59.63,59.7,59.7,0,0,1,59.64-59.63m0-19.88a79.51,79.51,0,1,0,79.51,79.51,79.51,79.51,0,0,0-79.51-79.51Z" transform="translate(-6 -6.52)"/></g></svg>